<?xml version="1.0" encoding="utf-8"?>
<!-- Generator: Adobe Illustrator 16.0.0, SVG Export Plug-In . SVG Version: 6.00 Build 0)  -->
<!DOCTYPE svg PUBLIC "-//W3C//DTD SVG 1.1//EN" "http://www.w3.org/Graphics/SVG/1.1/DTD/svg11.dtd">
<svg version="1.1" id="Layer_1" xmlns="http://www.w3.org/2000/svg" xmlns:xlink="http://www.w3.org/1999/xlink" x="0px" y="0px"
	 width="280.6px" height="350px" viewBox="0 0 280.6 350" enable-background="new 0 0 280.6 350" xml:space="preserve">
<g>
	<g>
		<path fill-rule="evenodd" clip-rule="evenodd" fill="#5350A2" d="M228.03,348.372c-73.067,0-146.135,0-219.201,0
			c-3.366-5.408-1.883-11.422-1.888-17.151C6.845,230.412,6.818,129.604,6.967,28.795c0.012-8.559-3.32-19.044,9.255-22.729
			C100.654,5.657,185.089,5.91,269.514,5.94c10.723,0.959,9.279,9.277,9.291,16.135c0.17,91.16,0.037,182.324,0.174,273.484
			c0.021,14.438-6.982,24.545-17.201,33.443C251.786,337.708,239.53,342.355,228.03,348.372z"/>
		<path fill-rule="evenodd" clip-rule="evenodd" fill="#F0F0F7" d="M228.03,348.372c9.953-14.705,24.906-24.23,37.688-35.97
			c7.254-6.663,10.563-13.769,10.531-23.692c-0.262-87.651-0.123-175.299-0.223-262.946c-0.008-6.288,1.283-13.241-5.262-17.709
			c-2.4-1.575-2.293-2.955,0.322-4.14c6.475,0.188,12.297-2.423,12.207,9.79c-0.799,108.289-0.588,216.586-0.221,324.883
			c0.027,8.405-1.564,10.535-10.045,10.034C258.077,347.733,243.034,348.372,228.03,348.372z"/>
		<path fill-rule="evenodd" clip-rule="evenodd" fill="#EAE9F3" d="M16.063,7.297C5.589,12.133,8.958,21.712,8.945,29.64
			c-0.18,106.244-0.119,212.488-0.117,318.732c-6.177,1.338-3.832-3.433-3.834-5.817C4.903,232.896,5.241,123.239,4.456,13.585
			C4.368,1.361,10.319,4.193,16.657,3.914C19.446,5.565,19.249,6.693,16.063,7.297z"/>
		<path fill-rule="evenodd" clip-rule="evenodd" fill="#8C8AC0" d="M16.063,7.297c0.201-1.127,0.399-2.255,0.594-3.383
			c84.809,0,169.62,0,254.429,0c-0.107,1.38-0.217,2.76-0.322,4.14C185.862,7.802,100.962,7.55,16.063,7.297z"/>
		<path fill-rule="evenodd" clip-rule="evenodd" fill="#eeeef0" d="M32.282,183.884c-0.002-46.237,0.42-92.479-0.277-138.705
			c-0.191-12.61,3.186-16.85,16.217-16.728c62.514,0.601,125.04,0.685,187.55-0.042c14.426-0.168,17.123,5.359,17.041,18.241
			c-0.484,75.538-0.572,151.087,0.063,226.624c0.117,13.78-3.938,17.592-17.559,17.424c-35.83-0.444-36.244,0.198-37.545,37.525
			c-0.355,10.152-3.315,13.524-13.487,13.433c-46.236-0.405-92.479-0.547-138.709,0.084c-12.162,0.164-13.532-5.241-13.455-15.237
			C32.484,278.966,32.282,231.425,32.282,183.884z"/>
		<path fill-rule="evenodd" clip-rule="evenodd" fill="#5855A4" d="M135.846,215.29c38.494,0.631,34.099-5.799,34.323,33.776
			c0.222,39.399,0.052,39.502-38.707,39.364c-38.895-0.138-32.696,3.089-33.268-33.03c-0.01-0.646,0-1.296,0-1.946
			C98.194,215.286,98.194,215.286,135.846,215.29z"/>
		<path fill-rule="evenodd" clip-rule="evenodd" fill="#5552A2" d="M143.778,62.679c21.517,0.003,43.036-0.092,64.552,0.068
			c5.457,0.042,12.223-1.793,12.539,7.676c0.307,9.243-5.893,8.563-11.785,8.57c-44.341,0.034-88.681,0.072-133.023-0.05
			c-5.441-0.015-12.202,1.731-12.419-7.771c-0.252-11.127,7.777-8.333,13.625-8.398C99.435,62.533,121.607,62.679,143.778,62.679z"
			/>
		<path fill-rule="evenodd" clip-rule="evenodd" fill="#5754A4" d="M167.325,164.354c5.843,20.554-1.08,25.034-17.477,24.912
			c-51.374-0.387-50.798,0.187-51.431-50.531c-0.195-15.703,3.461-22.821,20.397-21.146c13.549,1.338,27.333,0.203,41.008,0.398
			c3.796,0.053,8.674,0.328,8.02,5.795c-0.474,3.972-3.763,6.842-8.203,6.708c-6.462-0.198-12.996-1.686-19.348-1.066
			c-9.872,0.96-24.504-5.684-28.543,4.098c-4.606,11.158-1.481,25.596-1.292,38.601c0.074,5.099,4.472,6.188,8.471,5.906
			C135.539,176.847,154.292,185.062,167.325,164.354z"/>
		<path fill-rule="evenodd" clip-rule="evenodd" fill="#5855A4" d="M151.395,169.534c-6.424,0.558-25.802-17.779-25.288-24.365
			c0.18-2.309,1.474-5.248,3.247-6.567c3.689-2.741,7.909-1.361,10.359,1.938c10.092,13.578,16.773,4.599,24.064-3.077
			c5.363-5.646,11.064-10.982,16.811-16.242c2.427-2.225,5.446-3.7,8.843-1.819c3.156,1.743,4.383,4.637,4.102,8.119
			C193.122,132.612,156.442,169.095,151.395,169.534z"/>
		<path fill-rule="evenodd" clip-rule="evenodd" fill="#eeeef0" d="M156.952,251.421c5.415,20.42-3.559,24.479-22.994,25.022
			c-21.055,0.593-23.218-7.194-24.17-25.424c-1.13-21.632,7.568-23.639,25.55-23.845
			C154.312,226.952,162.186,232.259,156.952,251.421z"/>
	</g>
</g>
</svg>
