<?xml version="1.0" encoding="utf-8"?>
<!-- Generator: Adobe Illustrator 16.0.0, SVG Export Plug-In . SVG Version: 6.00 Build 0)  -->
<!DOCTYPE svg PUBLIC "-//W3C//DTD SVG 1.1//EN" "http://www.w3.org/Graphics/SVG/1.1/DTD/svg11.dtd">
<svg version="1.1" id="Layer_1" xmlns="http://www.w3.org/2000/svg" xmlns:xlink="http://www.w3.org/1999/xlink" x="0px" y="0px"
	 width="395.2px" height="361px" viewBox="0 0 395.2 361" enable-background="new 0 0 395.2 361" xml:space="preserve">
<g>
	<g>
		<path fill-rule="evenodd" clip-rule="evenodd" fill="#5350A1" d="M3.8,277.4c0-89.936,0-179.866,0-269.8
			c4.6-3.047,9.792-1.848,14.732-1.848c122.894,0.022,245.789-0.227,368.679,0.082c11.584,2.293,9.866,11.422,9.86,19.494
			c-0.058,82.884,0.235,165.768-0.128,248.659c-2.074,11.24-9.489,15.768-20.214,15.853c-39.033,0.319-77.985,1.536-117.087-1.425
			c-41.511-3.146-83.277-3.043-124.906,0.445c-37.761,3.162-75.561,1.907-113.356,0.753C12.816,289.35,7.411,284.707,3.8,277.4z"/>
		<path fill-rule="evenodd" clip-rule="evenodd" fill="#eeeef0" d="M3.8,277.4c7.012,2.875,14.213,3.918,21.873,3.907
			c116.074-0.156,232.148-0.108,348.223-0.108c8.108,0,16.742,1.511,21.709-7.536c1.082-2.676,2.214-2.698,3.396-0.063
			c0,28.5-0.396,57.008,0.251,85.492c0.186,8.194-1.592,9.764-9.751,9.742c-125.399-0.334-250.8-0.334-376.2,0
			c-8.158,0.021-9.951-1.548-9.75-9.742C4.212,331.876,3.8,304.635,3.8,277.4z"/>
		<path fill-rule="evenodd" clip-rule="evenodd" fill="#D0CFE5" d="M387.687,7.225C259.725,7.348,131.762,7.474,3.8,7.6
			C7.22-0.256,14.072,4.045,19,4.034C141.867,3.737,264.733,3.8,387.6,3.8c1.434,0.724,1.922,1.474,1.473,2.245
			C388.619,6.832,388.159,7.225,387.687,7.225z"/>
		<path fill-rule="evenodd" clip-rule="evenodd" fill="#EBEAF3" d="M387.687,7.225c-0.119-1.139-0.148-2.282-0.087-3.425
			c9.496-1.896,11.696,1.896,11.65,11.4C398.824,101.331,399,187.465,399,273.6l-1.695,0.104l-1.7-0.04
			c-0.134-81.622-0.229-163.248-0.454-244.87C395.127,20.885,397.548,11.849,387.687,7.225z"/>
		<path fill-rule="evenodd" clip-rule="evenodd" fill="#eeeef0" d="M199.557,198.535c-51.248,0-102.501-0.367-153.74,0.268
			c-12.409,0.151-16.122-3.511-15.931-15.939c0.685-44.909,0.714-89.845-0.013-134.755c-0.208-12.77,4.13-15.834,16.224-15.786
			c102.494,0.408,204.992,0.419,307.486-0.004c12.376-0.052,16.231,3.67,16.054,16.076c-0.646,44.909-0.722,89.845,0.041,134.751
			c0.221,13-4.545,15.731-16.379,15.612C302.057,198.238,250.805,198.535,199.557,198.535z"/>
		<path fill-rule="evenodd" clip-rule="evenodd" fill="#5350A2" d="M199.654,362.243c-25.316,0.022-50.632-0.015-75.946,0.04
			c-9.273,0.02-18.883-0.122-19.193-12.609c-0.293-11.76,8.09-15.271,17.939-14.124c12.061,1.407,14.417-4.23,15.638-14.884
			c3.076-26.871,3.687-26.805,31.55-26.809c22.785-0.004,45.648,1.162,68.326-0.389c16.223-1.113,23.591,4.048,23.142,20.258
			c-0.392,14.086,2.015,24.792,20.736,22.139c8.604-1.217,14.229,5.188,13.616,14.402c-0.646,9.712-7.572,12.009-16.063,11.982
			C252.817,362.172,226.235,362.221,199.654,362.243z"/>
		<path fill-rule="evenodd" clip-rule="evenodd" fill="#5451A2" d="M191.875,166.914c-37.328,0.004-74.656,0.022-111.983-0.011
			c-9.585-0.008-20.351,1.061-20.362-13.159c-0.011-14.213,10.664-13.155,20.312-13.155c75.92,0.007,151.84,0.026,227.76-0.026
			c9.999-0.007,20.015-0.133,19.375,14.039c-0.585,12.933-10.313,12.294-19.325,12.298
			C269.061,166.929,230.467,166.91,191.875,166.914z"/>
		<path fill-rule="evenodd" clip-rule="evenodd" fill="#5552A3" d="M237.542,125.471c-23.973-0.004-47.945-0.167-71.914,0.078
			c-9.372,0.096-16.857-2.112-16.675-12.985c0.178-10.587,7.556-13.151,16.926-13.125c47.943,0.126,95.887,0.085,143.831,0.011
			c9.886-0.015,17.91,1.896,17.331,14.313c-0.549,11.815-8.993,11.764-17.584,11.737
			C285.486,125.422,261.513,125.474,237.542,125.471z"/>
		<path fill-rule="evenodd" clip-rule="evenodd" fill="#5350A1" d="M91.679,125.4c-32.567,0-32.567,0-32.56-34.991
			c0.008-31.287,0.008-31.287,34.557-31.265c31.71,0.019,31.71,0.019,31.684,37.967C125.34,125.4,125.34,125.4,91.679,125.4z"/>
		<path fill-rule="evenodd" clip-rule="evenodd" fill="#5350A1" d="M236.867,84.839c-23.396,0.003-46.791-0.022-70.187,0.015
			c-8.721,0.015-17.332-0.757-17.686-12.068c-0.396-12.654,8.839-13.263,18.302-13.252c47.422,0.063,94.846,0.008,142.268,0.037
			c8.487,0.008,17.142-0.033,17.495,11.964c0.392,13.189-8.869,13.278-18.109,13.289C284.922,84.854,260.895,84.836,236.867,84.839z
			"/>
	</g>
</g>
</svg>
