<?xml version="1.0" encoding="utf-8"?>
<!-- Generator: Adobe Illustrator 16.0.0, SVG Export Plug-In . SVG Version: 6.00 Build 0)  -->
<!DOCTYPE svg PUBLIC "-//W3C//DTD SVG 1.1//EN" "http://www.w3.org/Graphics/SVG/1.1/DTD/svg11.dtd">
<svg version="1.1" id="Layer_1" xmlns="http://www.w3.org/2000/svg" xmlns:xlink="http://www.w3.org/1999/xlink" x="0px" y="0px"
	 width="385.1px" height="312.498px" viewBox="0 0 385.1 312.498" enable-background="new 0 0 385.1 312.498" xml:space="preserve">
<g>
	<g>
		<path fill-rule="evenodd" clip-rule="evenodd" fill="#eeeef0" d="M333.508,2.335c16.591,0,39.336-6.436,48.002,1.85
			c8.289,7.927,2.007,31.162,2.014,47.668c0.025,75.766,0.011,151.527,0.011,227.293c-9.023,5.527-20.6,6.794-27.804,16.229
			c10.977,11.214,18.282-5.979,27.804-2.889c0,26.681,0,26.681-26.681,26.681c-113.948,0-227.897-0.16-341.844,0.28
			c-9.952,0.039-12.381-1.951-11.969-11.967c0.935-22.749,0.294-45.566,0.294-68.355c1.992-1.026,3.85-0.82,5.581,0.586
			c10.708,14.188,25.255,18.187,42.506,17.891c33.87-0.583,67.768-0.619,101.644,0.045c16.88,0.329,22.978,6.915,20.901,20.542
			c-1.781,11.686-9.914,15.274-20.253,15.688c-19.431,0.778-38.886-0.102-58.313,0.482c-7.939,0.24-20.908-1.854-20.83,7.849
			c0.072,9.067,12.81,4.957,19.788,5.003c59.434,0.391,118.871,0.332,178.304,0.064c6.01-0.025,16.63,2.896,16.698-4.918
			c0.073-8.243-10.733-7.715-17.76-7.934c-21.097-0.658-42.213,0.166-63.314-0.473c-10.538-0.318-18.401-3.677-19.206-16.004
			c-0.899-13.797,4.164-19.809,19.797-20.235c29.42-0.804,58.861-0.283,88.414-0.352c-29.547-1.834-56.019-10.931-77.363-32.331
			c-7.321-7.342-16.94-7.498-26.488-7.508c-45.548-0.042-91.096,0.01-136.646-0.025c-6.664-0.007-13.358,0.257-19.958-0.844
			c-15.625-2.612-24.381-10.97-24.667-26.645c-0.909-49.981-0.972-99.984,0.005-149.962c0.376-19.265,8.911-25.856,30.962-25.967
			c67.211-0.335,134.424-0.104,201.635-0.124c24.997-0.01,49.996-0.245,74.989,0.088c24.441,0.325,31.115,7.26,32.072,32.146
			c0.427,11.067-0.813,22.206,2.065,32.992c0.025-25.508,8.826-53.387-19.804-71.258C332.663,6.188,332.476,4.325,333.508,2.335z"/>
		<path fill-rule="evenodd" clip-rule="evenodd" fill="#D0CFE5" d="M333.508,2.335c-0.052,0.971,0,1.938,0.156,2.896
			c-5.967,6.647-14.092,5.719-21.685,5.735c-86.858,0.186-173.719,0.156-260.577,0.049c-6.618-0.01-13.332,0.169-19.458-3.12
			c-2.161-1.325-2.801-3.182-1.928-5.56C131.181,2.335,232.344,2.335,333.508,2.335z"/>
		<path fill-rule="evenodd" clip-rule="evenodd" fill="#6764AC" d="M6.099,240.146l-1.643,0.198l-1.121-1.218
			c0-71.147,0-142.298,0-213.445c2.375-0.873,4.211-0.222,5.524,1.938c3.474,6.14,2.728,12.901,2.762,19.513
			c0.284,55.452-0.338,110.907,0.313,166.36C12.041,222.626,14.075,232.599,6.099,240.146z"/>
		<path fill-rule="evenodd" clip-rule="evenodd" fill="#5956A5" d="M383.534,292.487c-8.432,7.973-16.867,16.313-29.803,9.143
			c-5.904-3.277-8.808-8.186-0.281-11.09c10.177-3.469,16.589-16.973,30.084-11.394
			C383.534,283.593,383.534,288.042,383.534,292.487z"/>
		<path fill-rule="evenodd" clip-rule="evenodd" fill="#eeeef0" d="M6.595,25.515c-1.086,0.055-2.174,0.11-3.26,0.166
			c0-7.781,0-15.564,0-23.346c8.893,0,17.788,0,26.681,0c0.061,0.978,0.015,1.948-0.137,2.915
			C22.882,12.884,14.062,18.421,6.595,25.515z"/>
		<path fill-rule="evenodd" clip-rule="evenodd" fill="#5350A2" d="M6.595,25.515C9.502,13.181,18.69,8.067,29.879,5.25
			c101.262-0.007,202.524-0.013,303.785-0.02c18.467,4.758,25.985,17.408,25.899,35.683c-0.085,17.597-0.018,35.194-0.018,53.635
			c-10.473-2.735-13.111-8.79-12.836-17.555c0.402-12.767,0.148-25.56,0.07-38.34c-0.085-13.438-6.61-20.821-20.356-20.825
			c-96.697-0.032-193.395-0.032-290.091,0.02c-12.824,0.01-19.717,6.645-19.747,19.499c-0.121,51.685-0.238,103.365,0.029,155.049
			c0.084,16.236,11.179,19.857,24.959,19.835c52.794-0.088,105.591,0.237,158.38-0.251c10.812-0.102,18.281,2.805,25.754,11.018
			c18.626,20.474,42.991,29.114,70.348,28.033c7.789-0.307,13.063-0.127,14.546,8.927c-3.222,4.397-8.023,2.124-11.966,2.153
			c-30.008,0.228-60.019,0.296-90.026,0.02c-9.141-0.082-15.391-0.16-15.344,12.682c0.048,12.93,5.508,14.229,15.99,13.956
			c22.769-0.599,45.57,0.107,68.348-0.342c7.913-0.156,13.739,2.127,18.894,8.077c3.249,3.755,4.61,7.582,3.666,12.129
			c-1.36,6.536-6.945,4.322-10.863,4.328c-71.688,0.141-143.378,0.121-215.067,0.072c-5.296-0.004-12.572,1.406-11.222-7.475
			c1.581-10.416,8.082-16.816,19.097-16.897c25.007-0.188,50.023-0.43,75.02,0.095c9.635,0.201,12.121-3.417,12.433-12.592
			c0.368-10.764-2.718-14.372-13.92-14.184c-38.891,0.658-77.8,0.349-116.7,0.192c-15.651-0.062-28.317-5.116-32.843-22.03
			C6.265,168.601,6.429,97.059,6.595,25.515z"/>
		<path fill-rule="evenodd" clip-rule="evenodd" fill="#5451A2" d="M370.198,159.497c-0.052,43.829-35.655,79.349-79.54,79.352
			c-43.598,0.004-78.866-36.09-78.404-80.237c0.456-43.434,35.411-78.42,78.468-78.54
			C334.435,79.951,370.248,115.741,370.198,159.497z"/>
		<path fill-rule="evenodd" clip-rule="evenodd" fill="#5451A2" d="M376.086,267.393c-8.491,8.031-18.887,12.874-28.889,18.021
			c-6.71,3.452-7.97-3.791-10.384-7.557c-3.857-6.024-6.363-13.092-10.932-18.446c-11.024-12.924-5.854-18.842,6.939-26.792
			c14.491-9.008,21.831-7.084,28.199,8.156C364.812,249.845,370.7,258.039,376.086,267.393z"/>
		<path fill-rule="evenodd" clip-rule="evenodd" fill="#5350A1" d="M138.395,61.624c23.818,0.003,47.636-0.085,71.453,0.081
			c4.515,0.033,11.067-1.7,10.465,6.452c-0.495,6.693-6.213,5.101-10.231,5.11c-47.636,0.117-95.271,0.117-142.906,0.013
			c-4.573-0.01-11.018,1.6-10.433-6.523c0.49-6.807,6.224-5.022,10.199-5.052C90.759,61.539,114.577,61.624,138.395,61.624z"/>
		<path fill-rule="evenodd" clip-rule="evenodd" fill="#6360AA" d="M117.549,103.325c-16.591-0.003-33.184,0.147-49.771-0.104
			c-4.421-0.065-10.835,2.248-11.321-5.732c-0.461-7.576,5.185-7.175,10.196-7.182c33.733-0.032,67.467-0.039,101.199,0.003
			c4.974,0.004,10.789-0.501,10.613,6.938c-0.186,7.895-6.618,5.94-11.147,5.999C150.73,103.449,134.138,103.325,117.549,103.325z"
			/>
		<path fill-rule="evenodd" clip-rule="evenodd" fill="#615EA9" d="M116.664,132.94c-16.584-0.003-33.168,0.111-49.751-0.075
			c-4.525-0.052-10.734,1.736-10.485-6.475c0.199-6.54,5.007-6.282,9.435-6.285c34.274-0.046,68.547-0.033,102.819-0.014
			c4.509,0.004,9.381-0.104,9.769,6.14c0.5,8.051-5.7,6.625-10.376,6.66C150.939,133.022,133.801,132.944,116.664,132.94z"/>
		<path fill-rule="evenodd" clip-rule="evenodd" fill="#5B59A6" d="M116.865,162.54c-17.169,0-34.338,0.035-51.505-0.023
			c-4.363-0.016-9.198,0.615-8.932-6.36c0.249-6.586,4.791-6.413,9.293-6.413c34.336-0.02,68.672,0,103.01,0.003
			c4.747,0,9.063,0.547,9.063,6.836c0,6.963-5.265,5.875-9.424,5.905C151.202,162.611,134.033,162.54,116.865,162.54z"/>
		<path fill-rule="evenodd" clip-rule="evenodd" fill="#eeeef0" d="M356.875,159.175c0.083,37.038-29.368,66.604-66.244,66.503
			c-35.906-0.095-65.068-29.569-65.184-65.884c-0.119-36.543,28.457-66.008,64.537-66.552
			C326.739,92.688,356.79,122.31,356.875,159.175z"/>
	</g>
</g>
</svg>
